<svg id="SvgjsSvg1006" width="288" height="288" xmlns="http://www.w3.org/2000/svg" version="1.1" xmlns:xlink="http://www.w3.org/1999/xlink" xmlns:svgjs="http://svgjs.com/svgjs"><defs id="SvgjsDefs1007"></defs><g id="SvgjsG1008" transform="matrix(1,0,0,1,0,0)"><svg xmlns="http://www.w3.org/2000/svg" width="288" height="288" enable-background="new 0 0 44.309 44.309" viewBox="0 0 44.309 44.309"><path d="M17.356,3.456C17.356,1.547,15.809,0,13.899,0H3.526C1.617,0,0.07,1.547,0.07,3.456V13.83
			c0,1.909,1.547,3.456,3.456,3.456H13.9c1.909,0,3.457-1.547,3.457-3.456L17.356,3.456L17.356,3.456z M14.252,13.771
			c0,0.227-0.184,0.41-0.411,0.41H3.515c-0.227,0-0.411-0.184-0.411-0.41V3.444c0-0.227,0.184-0.41,0.411-0.41h10.327
			c0.227,0,0.411,0.184,0.411,0.41L14.252,13.771L14.252,13.771z" fill="#ffffff" class="color000 svgShape"></path><rect width="6.632" height="6.632" x="5.362" y="5.291" fill="#ffffff" class="color000 svgShape"></rect><path d="M17.356,30.479c0-1.908-1.547-3.455-3.457-3.455H3.526c-1.909,0-3.456,1.547-3.456,3.455v10.375
			c0,1.908,1.547,3.455,3.456,3.455H13.9c1.909,0,3.457-1.547,3.457-3.455L17.356,30.479L17.356,30.479z M14.252,40.848
			c0,0.227-0.168,0.428-0.395,0.428H3.511c-0.227,0-0.407-0.201-0.407-0.428V30.5c0-0.227,0.18-0.443,0.407-0.443h10.347
			c0.226,0,0.395,0.217,0.395,0.443L14.252,40.848L14.252,40.848z" fill="#ffffff" class="color000 svgShape"></path><rect width="6.632" height="6.703" x="5.362" y="32.314" fill="#ffffff" class="color000 svgShape"></rect><path d="M44.238,3.456C44.238,1.547,42.691,0,40.782,0H30.408c-1.909,0-3.457,1.547-3.457,3.456V13.83
			c0,1.909,1.547,3.456,3.457,3.456h10.374c1.909,0,3.456-1.547,3.456-3.456V3.456z M41.135,13.771c0,0.227-0.185,0.41-0.412,0.41
			H30.396c-0.227,0-0.41-0.184-0.41-0.41V3.444c0-0.227,0.184-0.41,0.41-0.41h10.326c0.228,0,0.412,0.184,0.412,0.41V13.771z" fill="#ffffff" class="color000 svgShape"></path><rect width="6.703" height="6.632" x="32.243" y="5.291" fill="#ffffff" class="color000 svgShape"></rect><path d="M4.007 19.261c-.499 0-.903.404-.903.903v2.287c0 .499.404.902.903.902h2.131v.084c0 .5.404.904.903.904h5.165v.084c0 .5.404.903.903.903h2.287c.499 0 .903-.403.903-.903V22.21c0-.499-.404-.903-.903-.903h-1.143v-1.144c0-.499-.404-.903-.903-.903h-1.23c-.499 0-.903.404-.903.903v1.144h-4.02v-1.144c0-.499-.404-.903-.903-.903L4.007 19.261 4.007 19.261zM20.813 14.831c0 .499.404.903.903.903h3.274c.499 0 .902-.404.902-.903v-2.287c0-.499-.403-.903-.902-.903h-1.143V4.585h.154c.5 0 .903-.404.903-.903V2.455c0-.499-.403-.903-.903-.903H19.67c-.499 0-.903.404-.903.903v1.228c0 .499.404.903.903.903h1.143v3.246H19.67c-.499 0-.903.404-.903.903v.17c0 .499.404.903.903.903h1.143V14.831zM23.424 18.118c0-.499-.404-.903-.903-.903h-2.287c-.499 0-.903.404-.903.903v2.287c0 .499.404.903.903.903h2.287c.499 0 .903-.404.903-.903V18.118zM39.652 28.434H38.51c-.5 0-.903.404-.903.903V33.6c0 .498.403.902.903.902h4.332c.5 0 .903-.404.903-.902V20.164c0-.499-.403-.903-.903-.903h-2.287c-.498 0-.902.404-.902.903V28.434zM29.422 25.118h.155c.499 0 .903-.403.903-.903v-2.216c0-.499-.404-.903-.903-.903H27.29c-.499 0-.903.404-.903.903v1.144H22.21c-.499 0-.903.404-.903.903v5.25c0 .499.404.903.903.903h6.309c.498 0 .902-.404.902-.903V25.118zM37.606 20.32v-1.144c0-.499-.404-.903-.903-.903h-.24c-.498 0-.902.404-.902.903v1.144H33.43c-.5 0-.903.404-.903.903v3.205c0 .498.403.902.903.902h3.273c.499 0 .903-.404.903-.902V20.32zM31.538 31.467h-2.131c-.499 0-.903.404-.903.903V33.6c0 .498.404.902.903.902h2.131v7.907c0 .499.404.903.903.903h2.216c.499 0 .903-.404.903-.903v-14.13c0-.499-.404-.903-.903-.903h-2.216c-.499 0-.903.404-.903.903V31.467zM21.378 42.408c0 .499.404.902.903.902h3.273c.5 0 .903-.403.903-.902v-9.051c0-.498-.403-.902-.903-.902h-3.273c-.499 0-.903.404-.903.902V42.408zM36.9 42.408c0 .499.404.902.902.902h2.994c.498 0 .902-.403.902-.902v-2.217c0-.498-.404-.902-.902-.902h-2.994c-.498 0-.902.404-.902.902V42.408z" fill="#ffffff" class="color000 svgShape"></path></svg></g></svg>